<svg xmlns="http://www.w3.org/2000/svg" viewBox="0 0 388.13 394.23"><defs><style>.cls-1{fill:#c61d23;}</style></defs><g id="Layer_2" data-name="Layer 2"><g id="Layer_1-2" data-name="Layer 1"><path class="cls-1" d="M157.87,55.8C274.6,10,356.28,82.16,375.21,101.3a4.24,4.24,0,0,0,6.85-1.19l5.66-12a4.23,4.23,0,0,0-1-4.93c-27.11-25-124.79-99-245.14-80.1C2.59,24.93,0,144.1,0,144.1V390a4.25,4.25,0,0,0,4.25,4.25H54.92A4.26,4.26,0,0,0,59.17,390l1.29-236.45S58.54,94.63,157.87,55.8Z"/><path class="cls-1" d="M217.17,125.14C144.9,101.79,97.27,133.81,82.53,146a4.24,4.24,0,0,0,.91,7.11h0a4.26,4.26,0,0,0,3.75-.08c47.12-23.92,106.38-9.05,131.33,18.13,17.87,19.46,23.56,62.15,25.37,85.52a4.25,4.25,0,0,1-7.61,2.91c-9.43-12.44-27.07-30.19-54.33-36.88-58.69-15.71-78,20.54-78,20.54h0c-8.7,12.18-14.06,28.78-14.06,47.09,0,37.41,22.33,67.73,49.89,67.73s49.89-30.32,49.89-67.73a91,91,0,0,0-1-13.55,4.27,4.27,0,0,1,4.11-4.92c16.71-.53,37.91,14.27,43.4,28.41,6.32,16.25,11.74,59.59,13.1,68.62,1.28,8.57,16,23.62,47.89,22.47a4.25,4.25,0,0,0,4-5.16c-6.28-28.63-3.05-122-8.55-155.92C286.7,194.21,279,145.9,217.17,125.14Z"/></g></g></svg>