<svg xmlns="http://www.w3.org/2000/svg" viewBox="0 0 411.89 145.77"><defs><style>.cls-1{fill:#c61d23;}.cls-2{fill:#231f20;}</style></defs><g id="Layer_2" data-name="Layer 2"><g id="Layer_1-2" data-name="Layer 1"><path class="cls-1" d="M326.06,78.93c-1.91,7-19.08,12.18-19.62.39A1.29,1.29,0,0,1,307.77,78c6.6.14,21.65-5.14,21.87-15.55.24-11.19-12.22-15.55-23.85-10.12,0,0-24.29,12.14-13.59,38.28a.61.61,0,0,0,.05.12c6.9,13.82,25.11,6.66,31.17,3.79a1.28,1.28,0,0,1,1.82,1.34c-.66,4.85-4,15.45-20.23,14.17-19.63-1.56-26.73-21.38-28.9-37.33a1.29,1.29,0,0,0-2.33-.56l-1.19,1.67a1.38,1.38,0,0,0-.24.81c2.23,51.55,38.46,50.77,38.46,50.77,23.14-1.07,34.75-23.49,32.36-37.57S328.05,71.62,326.06,78.93Z"/><path class="cls-1" d="M297.53,25.54c35.15-14.44,60.25,7,66.08,12.72a1.29,1.29,0,0,0,2.07-.39l1.65-3.67a1.29,1.29,0,0,0-.31-1.49c-8.34-7.45-38.3-29.39-74.67-23.07-42,7.31-42.21,43.43-42.21,43.43l1.2,74.49a1.29,1.29,0,0,0,1.31,1.27l15.35-.25a1.28,1.28,0,0,0,1.26-1.3l-.76-71.65S267.63,37.79,297.53,25.54Z"/><path class="cls-1" d="M411.08,86.88c-2.43-12.62-10.41-13.6-14-7.77A20,20,0,0,1,386,87.41a1.29,1.29,0,0,1-1.68-1.23L384.47,67a1.28,1.28,0,0,1,1.21-1.27c7.25-.43,13.67-1.61,17.46-4.09,13.45-8.79,11-30.36-41.86-55.21-9.8-5.11-10.23,3.23-8.78,3.55s2.67.8,3.46-.68S383,22.08,389.89,33.63,389.13,65,344.8,58.8a1.28,1.28,0,0,0-1.46,1.27v1.76a1.28,1.28,0,0,0,1.1,1.27c3,.46,12.05,1.72,22.3,2.39,0,.05,0,.11,0,.17v27.9a1.29,1.29,0,0,0,.23.73c1.15,1.67,6.62,8.86,14.82,8,9.26-1,13.81-5.11,14-5.94s2.56.18-1.06,6c-8.41,13.49-35.27,11.74-46.61-21a1.29,1.29,0,0,0-.66-.75l-.78-.37a1.28,1.28,0,0,0-1.84,1.24c.48,7.61,4,33.17,29.08,42.22C395.89,130.7,416.24,111,411.08,86.88Z"/><path class="cls-2" d="M47.84,25.36c35.37-13.88,60.12,8,65.86,13.78a1.28,1.28,0,0,0,2.07-.36l1.72-3.64a1.28,1.28,0,0,0-.29-1.49C109,26.07,79.38,3.64,42.91,9.38.78,16,0,52.11,0,52.11v74.51a1.29,1.29,0,0,0,1.29,1.29H16.64a1.3,1.3,0,0,0,1.29-1.29L18.32,55S17.74,37.12,47.84,25.36Z"/><path class="cls-2" d="M65.81,46.37C43.91,39.29,29.48,49,25,52.7a1.28,1.28,0,0,0,.27,2.15h0a1.3,1.3,0,0,0,1.14,0c14.28-7.25,32.23-2.75,39.8,5.49,5.41,5.9,7.14,18.83,7.68,25.92a1.28,1.28,0,0,1-2.3.88A29.89,29.89,0,0,0,55.13,75.94c-17.78-4.76-23.65,6.23-23.65,6.23h0a24.66,24.66,0,0,0-4.26,14.27C27.23,107.77,34,117,42.34,117s15.12-9.19,15.12-20.52a27.6,27.6,0,0,0-.31-4.11,1.31,1.31,0,0,1,1.25-1.49c5.06-.16,11.49,4.33,13.15,8.61,1.92,4.92,3.56,18.06,4,20.79s4.84,7.16,14.51,6.81a1.28,1.28,0,0,0,1.21-1.56c-1.9-8.68-.92-37-2.59-47.25C86.87,67.3,84.55,52.66,65.81,46.37Z"/><path class="cls-2" d="M200.23,56c-20.13-2.89-44,5.36-50.54,7.83a1.29,1.29,0,0,0-.5,2.06l.42.46a1.29,1.29,0,0,0,1.31.39,137.11,137.11,0,0,1,18.65-3.89A1.3,1.3,0,0,1,171,64.05l1.51,32.59a1.28,1.28,0,0,0,.79,1.13c2.77,1.15,12.27,5.09,13,5.09s9-2.67,12.74-8.83c2.6-4.24,4.74,12.57-6.43,16.42-10.08,3.48-26.55-3.28-34.57-15.32h0a36.32,36.32,0,0,0-.81-7.43c-2.43-12.62-10.41-13.6-14-7.77a19.91,19.91,0,0,1-11.08,8.3A1.28,1.28,0,0,1,130.6,87l.14-23.91a1.3,1.3,0,0,1,.8-1.18c7.33-3.06,14.1-7.13,17.44-12.38,9.4-14.75,1.64-38.72-50.72-49.12-9.85-2.5-8.06,7.24-6.71,7.11s2.53,0,2.83-2,26.85,5.4,35.8,16.33c8.77,10.7,8.17,34.38-32.34,39.74a1.28,1.28,0,0,0-.72,2.2l5.6,5.42a1.27,1.27,0,0,0,1.1.34c1.19-.19,4-.67,7.58-1.49A1.29,1.29,0,0,1,113,69.35v25a1.26,1.26,0,0,0,.23.73c1.15,1.67,6.62,8.86,14.82,8,9.26-1,13.81-5.11,14-5.94s2.55.18-1.07,6c-8.41,13.49-35.26,11.74-46.61-21a1.29,1.29,0,0,0-.66-.75L92.87,81A1.28,1.28,0,0,0,91,82.23c.48,7.61,4,33.17,29.08,42.22,16.65,5.35,32.34-4.61,36.78-20.21a1.28,1.28,0,0,1,2.31-.35c5.45,8.36,17.09,21,37.05,19.42,30.93-2.43,20.12-37.91,15.74-45.42S199.36,72,195.71,77.7c-1.64,2.53-3.12,4.55-4.27,6a1.29,1.29,0,0,1-2.3-.8V63.23a1.3,1.3,0,0,1,1.39-1.29c11,.8,21.64,4,28.34,12.11,22.94,27.66-4.24,51.44-4.24,51.44s-19,19.37-67.5,14.36a1.29,1.29,0,0,0-1.41,1.08l-.17,1a1.29,1.29,0,0,0,1,1.46c7.68,1.49,49.94,8.45,81-12.05,34.28-22.61,21.76-72.22-27.27-75.39Z"/></g></g></svg>